<?xml version="1.0" encoding="utf-8"?>
<!-- Generator: Adobe Illustrator 17.0.0, SVG Export Plug-In . SVG Version: 6.00 Build 0)  -->
<!DOCTYPE svg PUBLIC "-//W3C//DTD SVG 1.1//EN" "http://www.w3.org/Graphics/SVG/1.1/DTD/svg11.dtd">
<svg version="1.1" id="Layer_1" xmlns="http://www.w3.org/2000/svg" xmlns:xlink="http://www.w3.org/1999/xlink" x="0px" y="0px"
	 width="286px" height="135.333px" viewBox="0 0 286 135.333" enable-background="new 0 0 286 135.333" xml:space="preserve">
<g>
	<path fill="#1B9DD9" stroke="#FFFFFF" stroke-width="7" stroke-miterlimit="10" d="M72.954,86.334c0,2.496-0.526,4.535-1.582,6.117
		s-2.421,2.803-4.099,3.666c-1.681,0.863-3.552,1.468-5.615,1.798c-2.06,0.337-4.054,0.502-5.967,0.502H41.885V75.113H55.55
		c5.272,0,9.497,0.812,12.661,2.445C71.372,79.191,72.954,82.114,72.954,86.334 M69.646,45.912c0,3.645-1.269,6.397-3.81,8.27
		c-2.541,1.868-6.111,2.803-10.715,2.803H41.888v-21h12.083c5.179,0,9.085,0.794,11.726,2.376
		C68.328,39.943,69.646,42.457,69.646,45.912 M84.684,61.219l-1.725,2.948c-0.958-0.521,2.749-3.846,5.82-7.536
		c3.067-3.69,4.604-8.366,4.604-14.026c0-5.179-1.056-9.446-3.164-12.805c-2.114-3.353-4.845-6.015-8.201-7.978
		c-3.359-1.97-7.1-3.359-11.217-4.174c-4.129-0.812-8.156-1.224-12.086-1.224h-40.57v101.852h40.566
		c4.89,0,9.662-0.508,14.318-1.513c4.649-1.01,8.793-2.661,12.438-4.962c3.645-2.307,6.568-5.347,8.778-9.133
		c2.204-3.792,3.308-8.466,3.308-14.026c0-3.359-0.553-6.379-1.657-9.064s-2.586-5.037-4.46-7.052
		c-1.868-2.015-4.168-4.703-4.978-5.179l-3.5-3.179"/>
</g>
<g>
	<polygon fill="#4C4C4E" stroke="#FFFFFF" stroke-width="7" stroke-miterlimit="10" points="186.846,37.424 186.846,16.424 
		104.708,16.424 104.708,37.424 133.476,37.424 133.476,118.27 158.079,118.27 158.079,37.424 	"/>
</g>
<g>
	<path fill="#4C4C4E" stroke="#FFFFFF" stroke-width="7" stroke-miterlimit="10" d="M271.108,26.347
		c-4.511-4.123-9.759-7.242-15.752-9.35c-5.991-2.108-11.867-3.164-17.62-3.164c-4.797,0-9.542,0.598-14.243,1.798
		c-4.7,1.2-8.92,3.095-12.661,5.681c-3.735,2.592-6.76,5.9-9.058,9.927c-2.304,4.027-3.455,8.875-3.455,14.528
		c0,4.604,0.743,8.511,2.228,11.726c1.486,3.215,3.455,5.945,5.9,8.201c2.445,2.255,5.224,4.099,8.342,5.539
		c3.113,1.437,6.306,2.683,9.566,3.735c3.353,1.059,6.351,2.039,8.989,2.953c2.637,0.908,4.845,1.919,6.619,3.019
		c1.771,1.104,3.14,2.325,4.102,3.672c0.953,1.341,1.437,2.974,1.437,4.89c0,2.015-0.388,3.735-1.149,5.179
		c-0.767,1.434-1.798,2.586-3.095,3.449c-1.296,0.863-2.806,1.492-4.529,1.874c-1.726,0.382-3.507,0.571-5.323,0.571
		c-4.027,0-8.081-1.028-12.159-3.095c-4.078-2.06-7.362-4.625-9.852-7.693l-16.11,16.402c4.505,4.694,10.165,8.321,16.973,10.856
		c6.806,2.541,13.855,3.81,21.147,3.81c4.98,0,9.828-0.668,14.528-2.015c4.694-1.341,8.869-3.398,12.513-6.183
		c3.645-2.782,6.547-6.306,8.703-10.577c2.159-4.264,3.239-9.326,3.239-15.175c0-5.082-1.01-9.326-3.022-12.73
		c-2.012-3.404-4.556-6.258-7.624-8.562c-3.067-2.301-6.472-4.144-10.213-5.533c-3.741-1.392-7.338-2.661-10.787-3.816
		c-2.4-0.764-4.559-1.507-6.472-2.228c-1.925-0.719-3.576-1.507-4.965-2.37c-1.392-0.863-2.445-1.874-3.164-3.022
		c-0.719-1.149-1.08-2.592-1.08-4.312c0-2.015,0.457-3.672,1.365-4.965c0.914-1.29,2.039-2.346,3.383-3.164
		c1.341-0.812,2.851-1.365,4.529-1.651c1.678-0.286,3.329-0.433,4.962-0.433c3.164,0,6.448,0.788,9.852,2.376
		c3.404,1.582,6.162,3.717,8.276,6.397L271.108,26.347z"/>
</g>
</svg>
