<?xml version="1.0" encoding="utf-8"?>
<!-- Generator: Adobe Illustrator 17.0.0, SVG Export Plug-In . SVG Version: 6.00 Build 0)  -->
<!DOCTYPE svg PUBLIC "-//W3C//DTD SVG 1.1//EN" "http://www.w3.org/Graphics/SVG/1.1/DTD/svg11.dtd">
<svg version="1.1" id="Capa_1" xmlns="http://www.w3.org/2000/svg" xmlns:xlink="http://www.w3.org/1999/xlink" x="0px" y="0px"
	 width="434.752px" height="66.794px" viewBox="0 0 434.752 66.794" enable-background="new 0 0 434.752 66.794"
	 xml:space="preserve">
<g>
	<rect x="110.869" y="0" fill="#D9DADB" width="1.67" height="66.794"/>
</g>
<g>
	<path fill="#009EE0" d="M18.884,39.711c0,0.83-0.175,1.508-0.526,2.034c-0.351,0.526-0.805,0.932-1.363,1.219
		c-0.559,0.287-1.181,0.488-1.867,0.598c-0.685,0.112-1.348,0.167-1.984,0.167H8.553V35.98h4.544c1.753,0,3.158,0.27,4.21,0.813
		C18.358,37.336,18.884,38.308,18.884,39.711 M17.784,26.27c0,1.212-0.422,2.127-1.267,2.75c-0.845,0.621-2.032,0.932-3.563,0.932
		h-4.4v-6.983h4.018c1.722,0,3.021,0.264,3.899,0.79C17.346,24.285,17.784,25.121,17.784,26.27 M20.128,32.584v-0.095
		c1.658-0.543,2.997-1.428,4.018-2.655c1.02-1.227,1.531-2.782,1.531-4.664c0-1.722-0.351-3.141-1.052-4.258
		c-0.703-1.115-1.611-2-2.727-2.653c-1.117-0.655-2.361-1.117-3.73-1.388c-1.373-0.27-2.712-0.407-4.019-0.407H0.659v33.868h13.489
		c1.626,0,3.213-0.169,4.761-0.503c1.546-0.336,2.924-0.885,4.136-1.65c1.212-0.767,2.184-1.778,2.919-3.037
		c0.733-1.261,1.1-2.815,1.1-4.664c0-1.117-0.184-2.121-0.551-3.014c-0.367-0.893-0.86-1.675-1.483-2.345
		c-0.621-0.67-1.356-1.219-2.201-1.65C21.985,33.038,21.085,32.744,20.128,32.584"/>
</g>
<g>
	<polygon fill="#4B4B4D" points="56.756,23.447 56.756,16.464 29.443,16.464 29.443,23.447 39.009,23.447 39.009,50.33 47.19,50.33 
		47.19,23.447 	"/>
</g>
<g>
	<path fill="#4B4B4D" d="M84.775,19.764c-1.5-1.371-3.245-2.408-5.238-3.109c-1.992-0.701-3.946-1.052-5.859-1.052
		c-1.595,0-3.173,0.199-4.736,0.598c-1.563,0.399-2.966,1.029-4.21,1.889c-1.242,0.862-2.248,1.962-3.012,3.301
		c-0.766,1.339-1.149,2.951-1.149,4.831c0,1.531,0.247,2.83,0.741,3.899c0.494,1.069,1.149,1.977,1.962,2.727
		c0.813,0.75,1.737,1.363,2.774,1.842c1.035,0.478,2.097,0.892,3.181,1.242c1.115,0.352,2.112,0.678,2.989,0.982
		c0.877,0.302,1.611,0.638,2.201,1.004c0.589,0.367,1.044,0.773,1.364,1.221c0.317,0.446,0.478,0.989,0.478,1.626
		c0,0.67-0.129,1.242-0.382,1.722c-0.255,0.477-0.598,0.86-1.029,1.147c-0.431,0.287-0.933,0.496-1.506,0.623
		c-0.574,0.127-1.166,0.19-1.77,0.19c-1.339,0-2.687-0.342-4.043-1.029c-1.356-0.685-2.448-1.538-3.276-2.558l-5.357,5.454
		c1.498,1.561,3.38,2.767,5.644,3.61c2.263,0.845,4.607,1.267,7.032,1.267c1.656,0,3.268-0.222,4.831-0.67
		c1.561-0.446,2.949-1.13,4.161-2.056c1.212-0.925,2.177-2.097,2.894-3.517c0.718-1.418,1.077-3.101,1.077-5.046
		c0-1.69-0.336-3.101-1.005-4.233s-1.515-2.081-2.535-2.847c-1.02-0.765-2.152-1.378-3.396-1.84
		c-1.244-0.463-2.44-0.885-3.587-1.269c-0.798-0.254-1.516-0.501-2.152-0.741c-0.64-0.239-1.189-0.501-1.651-0.788
		c-0.463-0.287-0.813-0.623-1.052-1.005c-0.239-0.382-0.359-0.862-0.359-1.434c0-0.67,0.152-1.221,0.454-1.651
		c0.304-0.429,0.678-0.78,1.125-1.052c0.446-0.27,0.948-0.454,1.506-0.549c0.558-0.095,1.107-0.144,1.65-0.144
		c1.052,0,2.144,0.262,3.276,0.79c1.132,0.526,2.049,1.236,2.752,2.127L84.775,19.764z"/>
</g>
<g>
	<path fill="#4B4B4D" d="M144.777,25.542h4.428c0.579,0,1.164,0.047,1.758,0.141c0.594,0.095,1.125,0.29,1.596,0.586
		c0.47,0.297,0.854,0.709,1.15,1.238c0.297,0.528,0.445,1.226,0.445,2.095c0,0.781-0.232,1.462-0.695,2.041
		c-0.463,0.579-1.15,0.962-2.062,1.15v0.043c0.506,0.043,0.969,0.163,1.389,0.358c0.419,0.196,0.781,0.456,1.085,0.782
		c0.304,0.325,0.539,0.713,0.705,1.161c0.166,0.448,0.249,0.941,0.249,1.476c0,0.883-0.17,1.603-0.51,2.161
		c-0.34,0.557-0.767,0.995-1.281,1.313c-0.514,0.319-1.071,0.536-1.671,0.651c-0.601,0.116-1.161,0.174-1.682,0.174h-4.906V25.542z
		 M146.209,32.184h2.974c0.738,0,1.339-0.091,1.802-0.272c0.463-0.18,0.825-0.401,1.085-0.662c0.261-0.26,0.435-0.539,0.521-0.836
		c0.087-0.296,0.13-0.567,0.13-0.814c0-0.536-0.09-0.98-0.272-1.335c-0.181-0.355-0.423-0.637-0.727-0.847
		c-0.304-0.21-0.659-0.358-1.063-0.445c-0.405-0.086-0.832-0.13-1.281-0.13h-3.169V32.184z M146.209,39.609h3.278
		c0.839,0,1.516-0.101,2.029-0.304s0.908-0.456,1.183-0.76c0.275-0.304,0.46-0.626,0.554-0.966s0.141-0.647,0.141-0.922
		c0-0.565-0.108-1.049-0.325-1.455c-0.217-0.405-0.499-0.735-0.846-0.988c-0.347-0.253-0.742-0.437-1.183-0.553
		c-0.442-0.116-0.887-0.174-1.336-0.174h-3.495V39.609z"/>
	<path fill="#4B4B4D" d="M165.985,36.7c0,0.492,0.003,0.934,0.011,1.324c0.007,0.391,0.018,0.753,0.033,1.085
		c0.015,0.333,0.033,0.644,0.055,0.934c0.021,0.289,0.054,0.579,0.098,0.868h-1.216c-0.087-0.492-0.13-1.035-0.13-1.628h-0.043
		c-0.377,0.651-0.844,1.129-1.401,1.433c-0.557,0.304-1.262,0.456-2.116,0.456c-0.435,0-0.862-0.054-1.281-0.162
		c-0.42-0.108-0.797-0.282-1.129-0.521c-0.333-0.239-0.604-0.546-0.814-0.923c-0.21-0.376-0.315-0.832-0.315-1.367
		c0-0.767,0.195-1.375,0.586-1.823c0.391-0.448,0.872-0.785,1.443-1.009c0.572-0.224,1.18-0.369,1.824-0.435
		c0.643-0.065,1.212-0.098,1.704-0.098h1.519v-0.607c0-0.868-0.267-1.49-0.803-1.867c-0.536-0.376-1.208-0.564-2.019-0.564
		c-1.158,0-2.178,0.377-3.061,1.128l-0.76-0.89c0.478-0.463,1.071-0.815,1.78-1.053c0.709-0.239,1.389-0.359,2.041-0.359
		c1.216,0,2.185,0.286,2.909,0.858c0.723,0.572,1.085,1.495,1.085,2.767V36.7z M163.38,35.875c-0.55,0-1.082,0.037-1.596,0.108
		c-0.514,0.073-0.977,0.196-1.389,0.369s-0.742,0.405-0.987,0.695c-0.246,0.289-0.369,0.651-0.369,1.085
		c0,0.304,0.068,0.576,0.206,0.815c0.138,0.238,0.315,0.434,0.532,0.585c0.218,0.152,0.46,0.268,0.727,0.347
		c0.268,0.08,0.539,0.12,0.815,0.12c0.695,0,1.266-0.101,1.715-0.304c0.448-0.202,0.806-0.466,1.075-0.793
		c0.267-0.325,0.452-0.695,0.554-1.107c0.101-0.412,0.152-0.828,0.152-1.247v-0.673H163.38z"/>
	<path fill="#4B4B4D" d="M169.827,33.704c0-0.188-0.007-0.416-0.022-0.684c-0.015-0.267-0.025-0.539-0.033-0.814
		c-0.007-0.275-0.018-0.532-0.033-0.771c-0.014-0.239-0.021-0.424-0.021-0.554h1.302c0.015,0.376,0.025,0.738,0.033,1.085
		s0.025,0.572,0.055,0.673c0.333-0.593,0.76-1.078,1.281-1.455c0.521-0.376,1.157-0.564,1.91-0.564c0.13,0,0.257,0.011,0.38,0.033
		c0.123,0.022,0.25,0.047,0.38,0.076l-0.152,1.281c-0.174-0.058-0.34-0.086-0.499-0.086c-0.565,0-1.053,0.091-1.466,0.271
		c-0.412,0.182-0.753,0.431-1.02,0.749c-0.268,0.319-0.466,0.691-0.597,1.118c-0.13,0.427-0.196,0.887-0.196,1.379v5.47h-1.302
		V33.704z"/>
	<path fill="#4B4B4D" d="M185.587,39.435c-0.492,0.594-1.049,1.031-1.671,1.313s-1.295,0.423-2.019,0.423
		c-0.767,0-1.476-0.13-2.127-0.391c-0.651-0.26-1.208-0.625-1.671-1.096s-0.825-1.027-1.085-1.671
		c-0.261-0.644-0.391-1.349-0.391-2.117c0-0.767,0.13-1.473,0.391-2.117c0.26-0.644,0.622-1.201,1.085-1.671s1.02-0.836,1.671-1.097
		c0.651-0.26,1.36-0.391,2.127-0.391c0.739,0,1.422,0.152,2.051,0.456c0.629,0.304,1.19,0.731,1.683,1.281l-1.042,0.782
		c-0.377-0.42-0.789-0.749-1.238-0.988c-0.448-0.239-0.934-0.358-1.455-0.358c-0.607,0-1.158,0.108-1.649,0.325
		c-0.492,0.218-0.912,0.51-1.259,0.88c-0.347,0.369-0.612,0.803-0.793,1.302c-0.181,0.499-0.272,1.031-0.272,1.596
		s0.091,1.096,0.272,1.596c0.181,0.499,0.445,0.934,0.793,1.302c0.347,0.369,0.766,0.662,1.259,0.879
		c0.492,0.218,1.042,0.326,1.649,0.326c0.55,0,1.053-0.126,1.509-0.38c0.456-0.253,0.85-0.59,1.183-1.009L185.587,39.435z"/>
	<path fill="#4B4B4D" d="M196.896,39.023c-0.507,0.767-1.133,1.317-1.878,1.649c-0.746,0.333-1.567,0.499-2.464,0.499
		c-0.767,0-1.462-0.13-2.084-0.391c-0.623-0.26-1.158-0.625-1.606-1.096c-0.449-0.47-0.793-1.027-1.031-1.671
		c-0.239-0.644-0.358-1.357-0.358-2.139c0-0.752,0.122-1.446,0.369-2.084c0.246-0.637,0.594-1.19,1.042-1.66s0.977-0.84,1.585-1.107
		c0.607-0.267,1.281-0.402,2.019-0.402c0.766,0,1.443,0.135,2.029,0.402c0.586,0.267,1.078,0.622,1.477,1.063
		c0.398,0.442,0.698,0.944,0.901,1.509c0.202,0.564,0.303,1.136,0.303,1.715v0.912h-8.423c0,0.276,0.055,0.626,0.163,1.053
		c0.108,0.427,0.307,0.844,0.597,1.248c0.289,0.405,0.676,0.753,1.161,1.042c0.485,0.29,1.111,0.435,1.878,0.435
		c0.666,0,1.31-0.159,1.932-0.478c0.622-0.318,1.1-0.753,1.433-1.302L196.896,39.023z M195.898,35.05c0-0.448-0.09-0.868-0.272-1.26
		c-0.181-0.391-0.427-0.734-0.738-1.031c-0.311-0.297-0.681-0.532-1.107-0.706c-0.427-0.174-0.879-0.26-1.357-0.26
		c-0.709,0-1.299,0.145-1.769,0.434c-0.47,0.29-0.843,0.623-1.118,0.999c-0.275,0.377-0.47,0.742-0.586,1.097
		c-0.116,0.355-0.174,0.597-0.174,0.727H195.898z"/>
	<path fill="#4B4B4D" d="M200.652,24.5h1.303v16.411h-1.303V24.5z"/>
	<path fill="#4B4B4D" d="M205.362,35.897c0-0.767,0.13-1.473,0.391-2.117c0.26-0.644,0.622-1.201,1.085-1.671
		s1.02-0.836,1.671-1.097c0.651-0.26,1.36-0.391,2.127-0.391c0.767,0,1.473,0.13,2.117,0.391c0.644,0.261,1.201,0.626,1.671,1.097
		s0.836,1.027,1.097,1.671c0.26,0.644,0.391,1.349,0.391,2.117c0,0.767-0.13,1.473-0.391,2.117
		c-0.261,0.644-0.626,1.201-1.097,1.671s-1.027,0.836-1.671,1.096c-0.644,0.261-1.349,0.391-2.117,0.391
		c-0.767,0-1.476-0.13-2.127-0.391c-0.651-0.26-1.208-0.625-1.671-1.096s-0.825-1.027-1.085-1.671
		C205.492,37.369,205.362,36.664,205.362,35.897z M206.664,35.897c0,0.564,0.09,1.096,0.272,1.596
		c0.181,0.499,0.445,0.934,0.793,1.302c0.347,0.369,0.766,0.662,1.259,0.879c0.492,0.218,1.042,0.326,1.649,0.326
		c0.608,0,1.158-0.108,1.65-0.326c0.492-0.217,0.912-0.51,1.259-0.879c0.347-0.369,0.612-0.803,0.793-1.302
		c0.18-0.5,0.271-1.031,0.271-1.596s-0.091-1.097-0.271-1.596c-0.181-0.499-0.445-0.934-0.793-1.302
		c-0.347-0.369-0.767-0.662-1.259-0.88c-0.492-0.217-1.042-0.325-1.65-0.325c-0.607,0-1.158,0.108-1.649,0.325
		c-0.492,0.218-0.912,0.51-1.259,0.88c-0.347,0.369-0.612,0.803-0.793,1.302S206.664,35.333,206.664,35.897z"/>
	<path fill="#4B4B4D" d="M219.19,33.704c0-0.188-0.007-0.416-0.022-0.684c-0.015-0.267-0.025-0.539-0.033-0.814
		c-0.007-0.275-0.018-0.532-0.033-0.771c-0.014-0.239-0.021-0.424-0.021-0.554h1.302c0.015,0.376,0.025,0.738,0.033,1.085
		s0.025,0.572,0.055,0.673h0.065c0.26-0.55,0.695-1.023,1.302-1.422c0.608-0.398,1.317-0.597,2.127-0.597
		c0.782,0,1.418,0.123,1.91,0.369c0.492,0.246,0.879,0.568,1.161,0.966c0.283,0.398,0.478,0.857,0.586,1.378
		s0.163,1.057,0.163,1.606v5.97h-1.302v-5.905c0-0.404-0.037-0.799-0.109-1.183c-0.073-0.383-0.199-0.727-0.379-1.031
		c-0.182-0.304-0.435-0.546-0.76-0.727c-0.326-0.181-0.749-0.272-1.27-0.272c-0.478,0-0.93,0.083-1.357,0.249
		s-0.796,0.42-1.107,0.76c-0.311,0.34-0.557,0.767-0.738,1.281c-0.181,0.514-0.271,1.118-0.271,1.813v5.014h-1.302V33.704z"/>
	<path fill="#4B4B4D" d="M239.27,36.7c0,0.492,0.003,0.934,0.011,1.324c0.007,0.391,0.018,0.753,0.033,1.085
		c0.015,0.333,0.033,0.644,0.055,0.934c0.021,0.289,0.054,0.579,0.098,0.868h-1.216c-0.087-0.492-0.13-1.035-0.13-1.628h-0.043
		c-0.377,0.651-0.844,1.129-1.401,1.433c-0.557,0.304-1.262,0.456-2.116,0.456c-0.435,0-0.862-0.054-1.281-0.162
		c-0.42-0.108-0.797-0.282-1.129-0.521c-0.333-0.239-0.604-0.546-0.814-0.923c-0.21-0.376-0.315-0.832-0.315-1.367
		c0-0.767,0.195-1.375,0.586-1.823c0.391-0.448,0.872-0.785,1.443-1.009c0.572-0.224,1.18-0.369,1.824-0.435
		c0.643-0.065,1.212-0.098,1.704-0.098h1.519v-0.607c0-0.868-0.267-1.49-0.803-1.867c-0.536-0.376-1.208-0.564-2.019-0.564
		c-1.158,0-2.178,0.377-3.061,1.128l-0.76-0.89c0.478-0.463,1.071-0.815,1.78-1.053c0.709-0.239,1.389-0.359,2.041-0.359
		c1.216,0,2.185,0.286,2.909,0.858c0.723,0.572,1.085,1.495,1.085,2.767V36.7z M236.665,35.875c-0.55,0-1.082,0.037-1.596,0.108
		c-0.514,0.073-0.977,0.196-1.389,0.369s-0.742,0.405-0.987,0.695c-0.246,0.289-0.369,0.651-0.369,1.085
		c0,0.304,0.068,0.576,0.206,0.815c0.138,0.238,0.315,0.434,0.532,0.585c0.218,0.152,0.46,0.268,0.727,0.347
		c0.268,0.08,0.539,0.12,0.815,0.12c0.695,0,1.266-0.101,1.715-0.304c0.448-0.202,0.806-0.466,1.075-0.793
		c0.267-0.325,0.452-0.695,0.554-1.107c0.101-0.412,0.152-0.828,0.152-1.247v-0.673H236.665z"/>
	<path fill="#4B4B4D" d="M252.989,26.845h-5.253v-1.303h11.94v1.303h-5.253v14.066h-1.433V26.845z"/>
	<path fill="#4B4B4D" d="M269.097,39.023c-0.507,0.767-1.133,1.317-1.878,1.649c-0.746,0.333-1.567,0.499-2.464,0.499
		c-0.767,0-1.462-0.13-2.084-0.391c-0.623-0.26-1.158-0.625-1.606-1.096c-0.449-0.47-0.793-1.027-1.031-1.671
		c-0.239-0.644-0.358-1.357-0.358-2.139c0-0.752,0.122-1.446,0.369-2.084c0.246-0.637,0.594-1.19,1.042-1.66
		c0.448-0.47,0.977-0.84,1.585-1.107c0.607-0.267,1.281-0.402,2.019-0.402c0.766,0,1.443,0.135,2.029,0.402
		c0.586,0.267,1.078,0.622,1.477,1.063c0.398,0.442,0.698,0.944,0.901,1.509c0.202,0.564,0.303,1.136,0.303,1.715v0.912h-8.423
		c0,0.276,0.055,0.626,0.163,1.053c0.108,0.427,0.307,0.844,0.597,1.248c0.289,0.405,0.676,0.753,1.161,1.042
		c0.485,0.29,1.111,0.435,1.878,0.435c0.666,0,1.31-0.159,1.932-0.478c0.622-0.318,1.1-0.753,1.433-1.302L269.097,39.023z
		 M268.098,35.05c0-0.448-0.091-0.868-0.272-1.26c-0.181-0.391-0.427-0.734-0.738-1.031c-0.311-0.297-0.681-0.532-1.107-0.706
		c-0.427-0.174-0.879-0.26-1.357-0.26c-0.709,0-1.299,0.145-1.769,0.434c-0.47,0.29-0.843,0.623-1.118,0.999
		c-0.275,0.377-0.47,0.742-0.586,1.097s-0.174,0.597-0.174,0.727H268.098z"/>
	<path fill="#4B4B4D" d="M281.122,39.435c-0.492,0.594-1.049,1.031-1.671,1.313c-0.622,0.282-1.295,0.423-2.019,0.423
		c-0.767,0-1.476-0.13-2.127-0.391c-0.651-0.26-1.208-0.625-1.671-1.096s-0.825-1.027-1.085-1.671
		c-0.261-0.644-0.391-1.349-0.391-2.117c0-0.767,0.13-1.473,0.391-2.117c0.26-0.644,0.622-1.201,1.085-1.671s1.02-0.836,1.671-1.097
		c0.651-0.26,1.36-0.391,2.127-0.391c0.739,0,1.422,0.152,2.051,0.456c0.629,0.304,1.19,0.731,1.683,1.281l-1.042,0.782
		c-0.377-0.42-0.789-0.749-1.238-0.988c-0.448-0.239-0.934-0.358-1.455-0.358c-0.607,0-1.158,0.108-1.649,0.325
		c-0.492,0.218-0.912,0.51-1.259,0.88c-0.347,0.369-0.612,0.803-0.793,1.302s-0.272,1.031-0.272,1.596s0.091,1.096,0.272,1.596
		c0.181,0.499,0.445,0.934,0.793,1.302c0.347,0.369,0.766,0.662,1.259,0.879c0.492,0.218,1.042,0.326,1.649,0.326
		c0.55,0,1.053-0.126,1.509-0.38c0.456-0.253,0.85-0.59,1.183-1.009L281.122,39.435z"/>
	<path fill="#4B4B4D" d="M283.749,24.5h1.302v8.14h0.044c0.26-0.55,0.695-1.023,1.302-1.422c0.608-0.398,1.317-0.597,2.127-0.597
		c0.782,0,1.418,0.123,1.91,0.369c0.492,0.246,0.879,0.568,1.161,0.966c0.283,0.398,0.478,0.857,0.586,1.378
		c0.108,0.521,0.163,1.057,0.163,1.606v5.97h-1.302v-5.905c0-0.404-0.037-0.799-0.109-1.183c-0.073-0.383-0.199-0.727-0.379-1.031
		c-0.182-0.304-0.435-0.546-0.76-0.727c-0.326-0.181-0.749-0.272-1.27-0.272c-0.478,0-0.93,0.083-1.357,0.249
		s-0.796,0.42-1.107,0.76c-0.311,0.34-0.557,0.767-0.738,1.281s-0.272,1.118-0.272,1.813v5.014h-1.302V24.5z"/>
	<path fill="#4B4B4D" d="M296.166,33.704c0-0.188-0.007-0.416-0.022-0.684c-0.015-0.267-0.025-0.539-0.033-0.814
		c-0.007-0.275-0.018-0.532-0.033-0.771c-0.014-0.239-0.021-0.424-0.021-0.554h1.302c0.015,0.376,0.025,0.738,0.033,1.085
		c0.007,0.347,0.025,0.572,0.055,0.673h0.065c0.26-0.55,0.695-1.023,1.302-1.422c0.608-0.398,1.317-0.597,2.127-0.597
		c0.782,0,1.418,0.123,1.91,0.369c0.492,0.246,0.879,0.568,1.161,0.966c0.283,0.398,0.478,0.857,0.586,1.378
		c0.108,0.521,0.163,1.057,0.163,1.606v5.97h-1.302v-5.905c0-0.404-0.037-0.799-0.109-1.183c-0.073-0.383-0.199-0.727-0.379-1.031
		c-0.182-0.304-0.435-0.546-0.76-0.727c-0.326-0.181-0.749-0.272-1.27-0.272c-0.478,0-0.93,0.083-1.357,0.249
		s-0.796,0.42-1.107,0.76c-0.311,0.34-0.557,0.767-0.738,1.281s-0.272,1.118-0.272,1.813v5.014h-1.302V33.704z"/>
	<path fill="#4B4B4D" d="M308.018,35.897c0-0.767,0.13-1.473,0.391-2.117c0.26-0.644,0.622-1.201,1.085-1.671
		c0.463-0.47,1.02-0.836,1.671-1.097c0.651-0.26,1.36-0.391,2.127-0.391s1.473,0.13,2.117,0.391
		c0.644,0.261,1.201,0.626,1.671,1.097s0.836,1.027,1.097,1.671c0.26,0.644,0.391,1.349,0.391,2.117c0,0.767-0.13,1.473-0.391,2.117
		c-0.261,0.644-0.626,1.201-1.097,1.671s-1.027,0.836-1.671,1.096c-0.644,0.261-1.349,0.391-2.117,0.391s-1.476-0.13-2.127-0.391
		c-0.651-0.26-1.208-0.625-1.671-1.096c-0.463-0.47-0.825-1.027-1.085-1.671C308.148,37.369,308.018,36.664,308.018,35.897z
		 M309.321,35.897c0,0.564,0.091,1.096,0.272,1.596c0.181,0.499,0.445,0.934,0.793,1.302c0.347,0.369,0.766,0.662,1.259,0.879
		c0.492,0.218,1.042,0.326,1.649,0.326c0.608,0,1.158-0.108,1.65-0.326c0.492-0.217,0.912-0.51,1.259-0.879
		c0.347-0.369,0.612-0.803,0.793-1.302c0.18-0.5,0.272-1.031,0.272-1.596s-0.091-1.097-0.272-1.596
		c-0.181-0.499-0.445-0.934-0.793-1.302c-0.347-0.369-0.767-0.662-1.259-0.88c-0.492-0.217-1.042-0.325-1.65-0.325
		c-0.607,0-1.158,0.108-1.649,0.325c-0.492,0.218-0.912,0.51-1.259,0.88c-0.347,0.369-0.612,0.803-0.793,1.302
		C309.411,34.8,309.321,35.333,309.321,35.897z"/>
	<path fill="#4B4B4D" d="M321.997,24.5h1.305v16.411h-1.305V24.5z"/>
	<path fill="#4B4B4D" d="M326.71,35.897c0-0.767,0.129-1.473,0.39-2.117c0.259-0.644,0.621-1.201,1.084-1.671
		s1.021-0.836,1.673-1.097c0.651-0.26,1.36-0.391,2.126-0.391c0.766,0,1.473,0.13,2.117,0.391c0.644,0.261,1.2,0.626,1.671,1.097
		s0.837,1.027,1.097,1.671c0.259,0.644,0.39,1.349,0.39,2.117c0,0.767-0.13,1.473-0.39,2.117c-0.261,0.644-0.626,1.201-1.097,1.671
		s-1.027,0.836-1.671,1.096c-0.644,0.261-1.35,0.391-2.117,0.391c-0.766,0-1.476-0.13-2.126-0.391
		c-0.652-0.26-1.21-0.625-1.673-1.096s-0.825-1.027-1.084-1.671C326.838,37.369,326.71,36.664,326.71,35.897z M328.011,35.897
		c0,0.564,0.091,1.096,0.271,1.596c0.183,0.499,0.447,0.934,0.793,1.302c0.349,0.369,0.766,0.662,1.259,0.879
		c0.492,0.218,1.044,0.326,1.65,0.326c0.608,0,1.158-0.108,1.65-0.326c0.492-0.217,0.912-0.51,1.259-0.879
		c0.347-0.369,0.612-0.803,0.793-1.302c0.179-0.5,0.271-1.031,0.271-1.596s-0.091-1.097-0.271-1.596
		c-0.181-0.499-0.445-0.934-0.793-1.302c-0.347-0.369-0.766-0.662-1.259-0.88c-0.492-0.217-1.042-0.325-1.65-0.325
		c-0.607,0-1.158,0.108-1.65,0.325c-0.492,0.218-0.91,0.51-1.259,0.88c-0.346,0.369-0.61,0.803-0.793,1.302
		C328.102,34.8,328.011,35.333,328.011,35.897z"/>
	<path fill="#4B4B4D" d="M350.586,40.26c0,1.245-0.179,2.25-0.541,3.018c-0.362,0.767-0.815,1.36-1.357,1.78
		c-0.543,0.42-1.125,0.702-1.748,0.847c-0.623,0.144-1.187,0.217-1.693,0.217c-0.507,0-1.001-0.047-1.487-0.141
		c-0.486-0.095-0.944-0.232-1.378-0.413c-0.435-0.181-0.83-0.402-1.182-0.662c-0.355-0.261-0.662-0.558-0.923-0.89l1.019-0.955
		c0.463,0.651,1.042,1.128,1.737,1.433c0.695,0.304,1.432,0.456,2.215,0.456c0.665,0,1.226-0.086,1.683-0.26
		c0.455-0.174,0.832-0.402,1.128-0.684s0.528-0.594,0.695-0.934c0.166-0.34,0.29-0.68,0.369-1.02c0.08-0.34,0.127-0.662,0.14-0.966
		c0.016-0.304,0.023-0.55,0.023-0.738v-1.389h-0.042c-0.378,0.607-0.887,1.085-1.531,1.433s-1.401,0.521-2.268,0.521
		c-0.739,0-1.433-0.134-2.084-0.402c-0.652-0.267-1.22-0.636-1.704-1.106c-0.484-0.47-0.869-1.017-1.15-1.639
		c-0.284-0.622-0.424-1.288-0.424-1.998c0-0.709,0.14-1.375,0.424-1.997c0.28-0.622,0.665-1.165,1.15-1.628
		c0.484-0.463,1.052-0.832,1.704-1.107c0.651-0.275,1.345-0.413,2.084-0.413c0.868,0,1.624,0.174,2.268,0.521
		c0.644,0.347,1.153,0.825,1.531,1.433h0.042v-1.693h1.301V40.26z M349.328,35.766c0-0.55-0.104-1.067-0.313-1.552
		c-0.21-0.484-0.492-0.904-0.848-1.259c-0.354-0.354-0.773-0.637-1.259-0.846c-0.484-0.21-1.001-0.315-1.552-0.315
		c-0.55,0-1.066,0.105-1.552,0.315c-0.483,0.21-0.903,0.492-1.259,0.846c-0.354,0.355-0.636,0.775-0.845,1.259
		c-0.212,0.485-0.316,1.003-0.316,1.552c0,0.55,0.104,1.067,0.316,1.552c0.209,0.485,0.491,0.904,0.845,1.259
		c0.355,0.355,0.776,0.637,1.259,0.846c0.486,0.21,1.003,0.315,1.552,0.315c0.551,0,1.068-0.104,1.552-0.315
		c0.486-0.21,0.905-0.492,1.259-0.846c0.355-0.355,0.638-0.774,0.848-1.259C349.223,36.834,349.328,36.317,349.328,35.766z"/>
	<path fill="#4B4B4D" d="M357.295,44.015c-0.246,0.651-0.587,1.165-1.021,1.542c-0.434,0.376-1.013,0.564-1.735,0.564
		c-0.219,0-0.435-0.019-0.652-0.055s-0.427-0.083-0.629-0.141l0.13-1.216c0.188,0.058,0.38,0.112,0.574,0.163
		c0.196,0.051,0.395,0.076,0.597,0.076c0.232,0,0.439-0.051,0.62-0.152c0.181-0.102,0.336-0.232,0.466-0.391
		c0.13-0.159,0.243-0.336,0.336-0.532c0.095-0.195,0.178-0.395,0.251-0.597l0.912-2.323l-4.082-10.072h1.455l3.322,8.444
		l3.234-8.444h1.389L357.295,44.015z"/>
	<path fill="#4B4B4D" d="M371.795,38.067c0.377,0.651,0.864,1.137,1.466,1.455c0.6,0.319,1.283,0.478,2.05,0.478
		c0.479,0,0.926-0.073,1.347-0.217c0.421-0.145,0.786-0.347,1.096-0.608c0.311-0.26,0.558-0.575,0.739-0.944
		c0.181-0.369,0.272-0.785,0.272-1.248c0-0.535-0.114-0.977-0.338-1.324c-0.223-0.347-0.525-0.633-0.902-0.858
		c-0.375-0.224-0.799-0.416-1.269-0.575c-0.47-0.159-0.956-0.318-1.455-0.478c-0.499-0.159-0.985-0.34-1.455-0.543
		c-0.47-0.202-0.894-0.466-1.27-0.792c-0.377-0.326-0.677-0.735-0.9-1.227c-0.225-0.492-0.338-1.099-0.338-1.823
		c0-0.68,0.134-1.284,0.401-1.813c0.269-0.528,0.631-0.969,1.086-1.324c0.457-0.355,0.982-0.622,1.575-0.803
		c0.592-0.181,1.215-0.272,1.866-0.272c0.84,0,1.618,0.148,2.335,0.445c0.714,0.297,1.334,0.793,1.856,1.487l-1.239,0.89
		c-0.36-0.506-0.784-0.886-1.269-1.14c-0.486-0.253-1.06-0.38-1.725-0.38c-0.463,0-0.905,0.062-1.324,0.185
		c-0.421,0.123-0.786,0.303-1.096,0.542c-0.313,0.239-0.561,0.54-0.75,0.901c-0.189,0.362-0.282,0.789-0.282,1.281
		c0,0.767,0.196,1.357,0.585,1.769c0.391,0.413,0.881,0.738,1.466,0.977c0.585,0.239,1.223,0.448,1.91,0.629
		c0.688,0.181,1.324,0.423,1.911,0.727c0.587,0.304,1.075,0.727,1.464,1.27c0.391,0.543,0.587,1.292,0.587,2.247
		c0,0.695-0.13,1.31-0.391,1.845c-0.261,0.536-0.61,0.987-1.053,1.357c-0.44,0.369-0.951,0.648-1.53,0.836
		c-0.579,0.188-1.179,0.282-1.8,0.282c-1.014,0-1.947-0.177-2.802-0.532s-1.585-0.952-2.192-1.791L371.795,38.067z"/>
	<path fill="#4B4B4D" d="M391.853,39.435c-0.492,0.594-1.05,1.031-1.671,1.313c-0.621,0.282-1.295,0.423-2.019,0.423
		c-0.768,0-1.476-0.13-2.128-0.391c-0.651-0.26-1.207-0.625-1.67-1.096s-0.825-1.027-1.086-1.671
		c-0.261-0.644-0.391-1.349-0.391-2.117c0-0.767,0.13-1.473,0.391-2.117c0.261-0.644,0.623-1.201,1.086-1.671
		s1.019-0.836,1.67-1.097c0.652-0.26,1.36-0.391,2.128-0.391c0.739,0,1.422,0.152,2.051,0.456c0.629,0.304,1.19,0.731,1.683,1.281
		l-1.042,0.782c-0.377-0.42-0.789-0.749-1.238-0.988c-0.448-0.239-0.934-0.358-1.455-0.358c-0.608,0-1.158,0.108-1.649,0.325
		c-0.492,0.218-0.913,0.51-1.259,0.88c-0.349,0.369-0.613,0.803-0.793,1.302c-0.183,0.499-0.272,1.031-0.272,1.596
		s0.09,1.096,0.272,1.596c0.179,0.499,0.444,0.934,0.793,1.302c0.346,0.369,0.766,0.662,1.259,0.879
		c0.491,0.218,1.04,0.326,1.649,0.326c0.55,0,1.053-0.126,1.508-0.38c0.457-0.253,0.851-0.59,1.184-1.009L391.853,39.435z"/>
	<path fill="#4B4B4D" d="M394.48,24.5h1.303v8.14h0.042c0.261-0.55,0.695-1.023,1.303-1.422c0.608-0.398,1.316-0.597,2.128-0.597
		c0.781,0,1.417,0.123,1.91,0.369c0.491,0.246,0.879,0.568,1.161,0.966c0.282,0.398,0.478,0.857,0.585,1.378
		c0.109,0.521,0.163,1.057,0.163,1.606v5.97h-1.301v-5.905c0-0.404-0.036-0.799-0.109-1.183c-0.073-0.383-0.199-0.727-0.38-1.031
		c-0.181-0.304-0.434-0.546-0.76-0.727c-0.326-0.181-0.749-0.272-1.269-0.272c-0.479,0-0.93,0.083-1.357,0.249
		s-0.796,0.42-1.109,0.76c-0.31,0.34-0.556,0.767-0.737,1.281s-0.271,1.118-0.271,1.813v5.014h-1.303V24.5z"/>
	<path fill="#4B4B4D" d="M406.334,35.897c0-0.767,0.129-1.473,0.39-2.117c0.259-0.644,0.621-1.201,1.084-1.671
		c0.463-0.47,1.021-0.836,1.673-1.097c0.651-0.26,1.36-0.391,2.126-0.391c0.766,0,1.473,0.13,2.117,0.391
		c0.644,0.261,1.2,0.626,1.671,1.097s0.837,1.027,1.097,1.671c0.259,0.644,0.39,1.349,0.39,2.117c0,0.767-0.13,1.473-0.39,2.117
		c-0.261,0.644-0.626,1.201-1.097,1.671s-1.027,0.836-1.671,1.096c-0.644,0.261-1.35,0.391-2.117,0.391
		c-0.766,0-1.476-0.13-2.126-0.391c-0.652-0.26-1.21-0.625-1.673-1.096c-0.463-0.47-0.825-1.027-1.084-1.671
		C406.463,37.369,406.334,36.664,406.334,35.897z M407.635,35.897c0,0.564,0.091,1.096,0.271,1.596
		c0.183,0.499,0.447,0.934,0.793,1.302c0.349,0.369,0.766,0.662,1.259,0.879c0.492,0.218,1.044,0.326,1.65,0.326
		c0.608,0,1.158-0.108,1.65-0.326c0.492-0.217,0.912-0.51,1.259-0.879c0.347-0.369,0.612-0.803,0.793-1.302
		c0.179-0.5,0.271-1.031,0.271-1.596s-0.091-1.097-0.271-1.596c-0.181-0.499-0.445-0.934-0.793-1.302
		c-0.347-0.369-0.766-0.662-1.259-0.88c-0.492-0.217-1.042-0.325-1.65-0.325c-0.607,0-1.158,0.108-1.65,0.325
		c-0.492,0.218-0.91,0.51-1.259,0.88c-0.346,0.369-0.61,0.803-0.793,1.302C407.726,34.8,407.635,35.333,407.635,35.897z"/>
	<path fill="#4B4B4D" d="M419.64,35.897c0-0.767,0.129-1.473,0.39-2.117c0.259-0.644,0.621-1.201,1.084-1.671
		c0.463-0.47,1.021-0.836,1.673-1.097c0.651-0.26,1.36-0.391,2.126-0.391s1.473,0.13,2.117,0.391c0.644,0.261,1.2,0.626,1.671,1.097
		c0.471,0.47,0.837,1.027,1.097,1.671c0.259,0.644,0.39,1.349,0.39,2.117c0,0.767-0.13,1.473-0.39,2.117
		c-0.261,0.644-0.626,1.201-1.097,1.671c-0.471,0.47-1.027,0.836-1.671,1.096c-0.644,0.261-1.35,0.391-2.117,0.391
		s-1.476-0.13-2.126-0.391c-0.652-0.26-1.21-0.625-1.673-1.096c-0.463-0.47-0.825-1.027-1.084-1.671
		C419.769,37.369,419.64,36.664,419.64,35.897z M420.942,35.897c0,0.564,0.091,1.096,0.271,1.596
		c0.183,0.499,0.447,0.934,0.793,1.302c0.349,0.369,0.766,0.662,1.259,0.879c0.492,0.218,1.044,0.326,1.65,0.326
		c0.608,0,1.158-0.108,1.65-0.326c0.492-0.217,0.912-0.51,1.259-0.879c0.347-0.369,0.612-0.803,0.793-1.302
		c0.179-0.5,0.271-1.031,0.271-1.596s-0.091-1.097-0.271-1.596c-0.181-0.499-0.445-0.934-0.793-1.302
		c-0.347-0.369-0.766-0.662-1.259-0.88c-0.492-0.217-1.042-0.325-1.65-0.325c-0.607,0-1.158,0.108-1.65,0.325
		c-0.492,0.218-0.91,0.51-1.259,0.88c-0.346,0.369-0.61,0.803-0.793,1.302C421.033,34.8,420.942,35.333,420.942,35.897z"/>
	<path fill="#4B4B4D" d="M433.619,24.5h1.305v16.411h-1.305V24.5z"/>
</g>
</svg>
